<svg width="486.569" height="486.569" xmlns="http://www.w3.org/2000/svg">

 <g>
  <title>background</title>
  <rect fill="#000000" id="canvas_background" height="488.569" width="488.569" y="-1" x="-1"/>
 </g>
 <g>
  <title>Layer 1</title>
  <g stroke="null" id="svg_1">
   <path fill="#ffffff" stroke="null" id="svg_2" d="m133.098939,311.66572l243.197351,0c27.576276,0 50.072711,-22.96511 50.072711,-51.115891l0,-104.454212c0,-0.092601 0,-0.277804 0,-0.370405c0,-0.277804 0,-0.463006 0,-0.74081c0,-0.185203 0,-0.370405 -0.090711,-0.555608c0,-0.185203 -0.090711,-0.463006 -0.090711,-0.648209s-0.090711,-0.370405 -0.090711,-0.555608c-0.090711,-0.185203 -0.090711,-0.370405 -0.181423,-0.648209c-0.090711,-0.185203 -0.090711,-0.370405 -0.181423,-0.555608c-0.090711,-0.185203 -0.090711,-0.370405 -0.181423,-0.555608c-0.090711,-0.185203 -0.181423,-0.370405 -0.272134,-0.648209c-0.090711,-0.185203 -0.181423,-0.370405 -0.272134,-0.463006c-0.090711,-0.185203 -0.181423,-0.370405 -0.272134,-0.555608c-0.090711,-0.185203 -0.181423,-0.277804 -0.272134,-0.463006c-0.090711,-0.185203 -0.272134,-0.370405 -0.362846,-0.555608c-0.090711,-0.185203 -0.181423,-0.277804 -0.362846,-0.463006c-0.090711,-0.185203 -0.272134,-0.277804 -0.362846,-0.463006s-0.272134,-0.277804 -0.362846,-0.463006s-0.272134,-0.277804 -0.362846,-0.370405c-0.181423,-0.185203 -0.272134,-0.277804 -0.453557,-0.463006c-0.181423,-0.092601 -0.272134,-0.277804 -0.453557,-0.370405c-0.181423,-0.092601 -0.362846,-0.277804 -0.544269,-0.370405c-0.181423,-0.092601 -0.272134,-0.185203 -0.453557,-0.277804s-0.362846,-0.185203 -0.544269,-0.370405c-0.181423,-0.092601 -0.362846,-0.185203 -0.544269,-0.277804s-0.362846,-0.185203 -0.544269,-0.277804s-0.362846,-0.185203 -0.544269,-0.277804s-0.362846,-0.092601 -0.544269,-0.185203c-0.181423,-0.092601 -0.453557,-0.185203 -0.63498,-0.185203s-0.362846,-0.092601 -0.453557,-0.092601c-0.272134,-0.092601 -0.453557,-0.092601 -0.725691,-0.092601c-0.090711,0 -0.181423,-0.092601 -0.362846,-0.092601l-308.237448,-43.429987l0,-43.892993c0,-0.463006 0,-0.926013 -0.090711,-1.296418c0,-0.092601 0,-0.185203 -0.090711,-0.370405c0,-0.277804 -0.090711,-0.555608 -0.090711,-0.833411c-0.090711,-0.277804 -0.090711,-0.463006 -0.181423,-0.74081c0,-0.185203 -0.090711,-0.277804 -0.090711,-0.463006c-0.090711,-0.277804 -0.181423,-0.555608 -0.272134,-0.833411c0,-0.092601 -0.090711,-0.277804 -0.090711,-0.370405c-0.090711,-0.277804 -0.181423,-0.463006 -0.362846,-0.74081c-0.090711,-0.092601 -0.090711,-0.277804 -0.181423,-0.370405c-0.090711,-0.185203 -0.181423,-0.370405 -0.362846,-0.555608c-0.090711,-0.185203 -0.181423,-0.277804 -0.272134,-0.463006s-0.181423,-0.277804 -0.272134,-0.463006s-0.272134,-0.370405 -0.362846,-0.555608c-0.090711,-0.092601 -0.181423,-0.185203 -0.272134,-0.277804c-0.181423,-0.185203 -0.362846,-0.370405 -0.544269,-0.555608c-0.090711,-0.092601 -0.181423,-0.185203 -0.272134,-0.277804c-0.181423,-0.185203 -0.362846,-0.370405 -0.63498,-0.555608c-0.090711,-0.092601 -0.272134,-0.185203 -0.362846,-0.277804c-0.181423,-0.185203 -0.362846,-0.277804 -0.544269,-0.463006c-0.272134,-0.185203 -0.544269,-0.370405 -0.725691,-0.463006c-0.090711,-0.092601 -0.181423,-0.092601 -0.272134,-0.185203c-0.362846,-0.185203 -0.816403,-0.370405 -1.179249,-0.555608l-66.854326,-28.706388c-6.259089,-2.685436 -13.425292,0.277804 -16.055924,6.66729s0.272134,13.704985 6.531223,16.390422l59.325277,25.557945l0,56.671966l0,8.982321l0,68.895331l0,61.579832l0,77.785051c0,25.92835 19.049401,47.411841 43.632199,50.652885c-4.44486,7.593303 -7.075492,16.483023 -7.075492,25.92835c0,27.872977 22.224301,50.467682 49.437731,50.467682s49.437731,-22.687307 49.437731,-50.467682c0,-9.260125 -2.449209,-18.057244 -6.803357,-25.465344l110.123679,0c-4.354149,7.500701 -6.803357,16.205219 -6.803357,25.465344c0,27.872977 22.224301,50.467682 49.437731,50.467682s49.437731,-22.687307 49.437731,-50.467682s-22.224301,-50.467682 -49.437731,-50.467682l-231.314153,0c-14.150984,0 -25.580624,-11.760359 -25.580624,-26.113553l0,-33.892058c7.438337,4.44486 16.237346,7.037695 25.580624,7.037695zm60.958083,103.342997c0,14.07539 -11.248218,25.465344 -24.945644,25.465344s-24.945644,-11.482555 -24.945644,-25.465344s11.248218,-25.465344 24.945644,-25.465344s24.945644,11.389954 24.945644,25.465344zm195.392426,0c0,14.07539 -11.248218,25.465344 -24.945644,25.465344s-24.945644,-11.482555 -24.945644,-25.465344s11.248218,-25.465344 24.945644,-25.465344s24.945644,11.389954 24.945644,25.465344zm-13.153158,-128.345335l-243.197351,0c-14.150984,0 -25.580624,-11.760359 -25.580624,-26.113553l0,-61.579832l0,-68.895331l0,-4.630063l294.358599,41.392759l0,93.619865c0,14.538397 -11.520352,26.206154 -25.580624,26.206154z"/>
  </g>
  <g id="svg_3"/>
  <g id="svg_4"/>
  <g id="svg_5"/>
  <g id="svg_6"/>
  <g id="svg_7"/>
  <g id="svg_8"/>
  <g id="svg_9"/>
  <g id="svg_10"/>
  <g id="svg_11"/>
  <g id="svg_12"/>
  <g id="svg_13"/>
  <g id="svg_14"/>
  <g id="svg_15"/>
  <g id="svg_16"/>
  <g id="svg_17"/>
 </g>
</svg>