<svg width="412.00000000000006" height="513" xmlns="http://www.w3.org/2000/svg">

 <g>
  <title>background</title>
  <rect fill="#000000" id="canvas_background" height="515" width="414" y="-1" x="-1"/>
 </g>
 <g>
  <title>Layer 1</title>
  <path stroke="#ffffff" transform="rotate(0.1207410916686058 205.2343444824264,255.99993896484975) " fill="#ffffff" stroke-width="3" id="svg_1" d="m378.887556,-11.79516l-347.310633,0c-26.891078,0 -48.769713,21.117634 -48.769713,47.073363l0,441.443539c0,25.955729 21.878635,47.073363 48.769713,47.073363l347.314866,0c26.891078,0 48.769713,-21.117634 48.769713,-47.073363l0,-441.443539c-0.004233,-25.955729 -21.882868,-47.073363 -48.773946,-47.073363zm-57.113906,366.126158l-149.395347,0c-8.979216,0 -16.256571,-7.024229 -16.256571,-15.691121s7.277355,-15.691121 16.256571,-15.691121l149.395347,0c8.979215,0 16.256571,7.024229 16.256571,15.691121s-7.277356,15.691121 -16.256571,15.691121zm16.256571,63.810559c0,8.666892 -7.277356,15.691121 -16.256571,15.691121l-149.395347,0c-8.979216,0 -16.256571,-7.024229 -16.256571,-15.691121s7.277355,-15.691121 16.256571,-15.691121l149.395347,0c8.979215,0 16.256571,7.024229 16.256571,15.691121zm-189.456788,-269.629849c-0.241308,-0.249261 -0.47415,-0.502606 -0.698524,-0.764125c-5.702501,-6.66464 -14.317637,-16.737196 -14.313404,-31.022654c0,-23.397749 19.723793,-42.439579 43.964712,-42.439579c10.185757,0 19.905832,3.46921 27.606536,9.455535c8.411929,-6.636037 19.262343,-10.133849 30.667344,-9.431018c22.848102,1.409749 40.903904,19.854989 41.107111,41.99418c0.131237,14.244596 -7.654136,24.402962 -14.575879,31.692796c-0.127005,0.138932 -0.258242,0.277864 -0.393714,0.416796l-44.866443,46.043633c-3.073508,3.154569 -7.357791,4.940251 -11.836816,4.940251c-0.004233,0 -0.004233,0 -0.004233,0c-4.483258,0 -8.763308,-1.785682 -11.836816,-4.932079l-44.819875,-45.953736zm173.200217,126.31761l-149.395347,0c-8.979216,0 -16.256571,-7.024229 -16.256571,-15.691121s7.277355,-15.691121 16.256571,-15.691121l149.395347,0c8.979215,0 16.256571,7.024229 16.256571,15.691121s-7.277356,15.691121 -16.256571,15.691121zm-217.414703,89.398528c-14.63938,0 -26.505831,-11.457788 -26.505831,-25.587969s11.86645,-25.587969 26.505831,-25.587969c14.643615,0 26.510065,11.457788 26.510065,25.587969s-11.86645,25.587969 -26.510065,25.587969zm26.510065,53.913711c0,14.130181 -11.86645,25.587969 -26.510065,25.587969c-14.63938,0 -26.505831,-11.457788 -26.505831,-25.587969s11.86645,-25.587969 26.505831,-25.587969c14.643615,0 26.510065,11.457788 26.510065,25.587969zm-26.510065,-133.415391c-14.63938,0 -26.505831,-11.457788 -26.505831,-25.587969s11.86645,-25.587969 26.505831,-25.587969c14.643615,0 26.510065,11.457788 26.510065,25.587969s-11.86645,25.587969 -26.510065,25.587969zm0,0"/>
 </g>
</svg>